PathFileType	4	(X/Y/Z)	OpenSim_Sub02_EMGStiffKnee_Magnet.trc
DataRate	CameraRate	NumFrames	NumMarkers	Units	OrigDataRate	OrigDataStartFrame	OrigNumFrames
100	100	30	8	m	100	5918	7890
Frame#	Time	torso_imu_offset_imu	pelvis_imu_offset_imu	tibia_r_imu_offset_imu	femur_r_imu_offset_imu	tibia_l_imu_offset_imu	femur_l_imu_offset_imu	toes_r_imu_offset_imu	toes_l_imu_offset_imu
				X1	Y1	Z1	X2	Y2	Z2	X3	Y3	Z3	X4	Y4	Z4	X5	Y5	Z5	X6	Y6	Z6	X7	Y7	Z7	X8		Y8	Z8	

5918	59.17000000	-0.93008486	-0.17449749	0.07254034	-0.53166943	0.19062482	-0.73392976	-0.62315139	-0.47777271	-0.19735225	-0.83933909	-0.11302479	0.09189841	-0.23133787	0.80461904	-0.11271660	-0.50541163	0.64579246	0.20090489	-0.64107782	-0.28206797	-0.38670327	-0.80980308	-0.11489354	0.15583618
5919	59.18000000	-0.92729351	-0.17869985	0.07231231	-0.53781637	0.18259012	-0.73284206	-0.61782155	-0.48054895	-0.20130628	-0.83561350	-0.13025936	0.10438704	-0.21246545	0.80859155	-0.11518518	-0.51091616	0.63888845	0.20238045	-0.64352592	-0.28405078	-0.38088785	-0.80023877	-0.09738757	0.18629856
5920	59.19000000	-0.93091385	-0.17051962	0.07997555	-0.53727039	0.17770521	-0.73237354	-0.61464757	-0.48091044	-0.20250839	-0.83313569	-0.15057699	0.10345661	-0.19770288	0.81019901	-0.11313822	-0.51979683	0.63679392	0.20551350	-0.64088405	-0.28932332	-0.37722194	-0.79851154	-0.07953889	0.20899781
5921	59.20000000	-0.93057819	-0.17003947	0.08474578	-0.52671622	0.17368037	-0.73751377	-0.61435032	-0.49204947	-0.19840064	-0.82626269	-0.17758379	0.10196145	-0.17793713	0.81514096	-0.10379764	-0.52856290	0.62510017	0.20679265	-0.63550112	-0.29110312	-0.37972132	-0.79659229	-0.06862828	0.21936414
5922	59.21000000	-0.92544190	-0.16454062	0.08180688	-0.53026753	0.16757995	-0.73886701	-0.60241290	-0.49549213	-0.20329649	-0.82067357	-0.19715974	0.09758961	-0.16372991	0.82354513	-0.09576683	-0.53663419	0.61330283	0.21124287	-0.63326285	-0.29693280	-0.37449092	-0.80088290	-0.06114472	0.20622020
5923	59.22000000	-0.92967635	-0.15439380	0.08249833	-0.53204583	0.15647239	-0.74587864	-0.60091601	-0.49843494	-0.20622719	-0.81616222	-0.21266928	0.09910788	-0.15403998	0.82465898	-0.09112632	-0.54474807	0.60395051	0.21338556	-0.63879060	-0.29559037	-0.37506879	-0.80942406	-0.05978562	0.19167188
5924	59.23000000	-0.93230846	-0.15371788	0.08561615	-0.52996500	0.15508264	-0.74851858	-0.60056918	-0.50749883	-0.20767429	-0.81606705	-0.22580098	0.09955515	-0.15322167	0.82243311	-0.09209224	-0.55656712	0.59558568	0.21547220	-0.63499512	-0.29405527	-0.37519033	-0.81225280	-0.05515167	0.17380003
5925	59.24000000	-0.92943997	-0.14572599	0.08381599	-0.53393646	0.14959364	-0.74654802	-0.59672769	-0.51476276	-0.20041264	-0.81163180	-0.22915238	0.09932611	-0.14581755	0.82407112	-0.11187848	-0.56680002	0.59392984	0.21930639	-0.64260401	-0.29746183	-0.37016218	-0.82164167	-0.03964752	0.14530644
5926	59.25000000	-0.93676022	-0.13821927	0.08368190	-0.53198806	0.14428921	-0.74592805	-0.59244753	-0.51774795	-0.20274128	-0.81214549	-0.22714173	0.10102299	-0.15603353	0.81856731	-0.13100099	-0.56665339	0.58290186	0.22667537	-0.64543087	-0.29506372	-0.36662117	-0.83292394	-0.02980641	0.12228087
5927	59.26000000	-0.93641111	-0.13553955	0.08620586	-0.53646489	0.14341134	-0.74196451	-0.58396291	-0.52323889	-0.20641091	-0.81643380	-0.22640027	0.10574886	-0.17122980	0.81148637	-0.14883540	-0.57431512	0.57834361	0.22128825	-0.64701852	-0.30044677	-0.36063186	-0.83689865	-0.02117089	0.08876687
5928	59.27000000	-0.93422412	-0.12819925	0.08442914	-0.54169762	0.13937696	-0.74014219	-0.58302846	-0.52408377	-0.20555920	-0.81264841	-0.22630873	0.11119180	-0.16992626	0.80396375	-0.17361863	-0.57663680	0.57687822	0.21761213	-0.65024502	-0.29836586	-0.35217029	-0.84082598	-0.00736152	0.05514461
5929	59.28000000	-0.93849713	-0.12333329	0.08543699	-0.54370644	0.13692559	-0.74516704	-0.57937708	-0.52902282	-0.20902590	-0.81316666	-0.23182012	0.11205111	-0.18308139	0.79418218	-0.19939572	-0.57894678	0.56857689	0.23017276	-0.65354583	-0.29393776	-0.34818031	-0.84494012	-0.00407787	0.02578232
5930	59.29000000	-0.93934398	-0.12351567	0.08508285	-0.54725563	0.12689794	-0.74133834	-0.57201052	-0.53614248	-0.20435854	-0.81166866	-0.23857501	0.11491331	-0.20222304	0.78971344	-0.22032206	-0.58122871	0.56554385	0.22873660	-0.65700488	-0.29521662	-0.34590327	-0.84480175	-0.00408037	-0.01214358
5931	59.30000000	-0.93673966	-0.12468730	0.08830375	-0.55084357	0.11665491	-0.73748438	-0.57123712	-0.54129838	-0.21107568	-0.80115751	-0.24797522	0.12086057	-0.21399845	0.77535787	-0.23391156	-0.59230969	0.56268886	0.22868607	-0.66306351	-0.29301369	-0.34065502	-0.83962477	-0.00047974	-0.05504806
5932	59.31000000	-0.93769359	-0.11997686	0.08546061	-0.55357443	0.11405291	-0.73560018	-0.57209086	-0.54473632	-0.21015179	-0.79562187	-0.25780678	0.12001355	-0.23883831	0.77071469	-0.24209038	-0.59530131	0.55342928	0.22749398	-0.66163403	-0.29082595	-0.33463807	-0.83995883	-0.00471521	-0.08824937
5933	59.32000000	-0.93378691	-0.12104674	0.09145661	-0.55056486	0.10676012	-0.74184488	-0.56749867	-0.54691211	-0.20666073	-0.79754172	-0.26519820	0.12551659	-0.26220161	0.76191133	-0.24020174	-0.60214704	0.54821877	0.22441989	-0.66498654	-0.28890243	-0.33300438	-0.83600558	-0.00781683	-0.12716417
5934	59.33000000	-0.93936112	-0.12284962	0.09430566	-0.55559942	0.09778646	-0.74267626	-0.55796923	-0.55200586	-0.21002655	-0.79727311	-0.27643501	0.12642524	-0.28528662	0.75112746	-0.23611591	-0.61080066	0.54316852	0.23897000	-0.67309033	-0.28847219	-0.33041852	-0.83172527	-0.01662584	-0.17336907
5935	59.34000000	-0.93835395	-0.11311355	0.09203975	-0.55704060	0.09567964	-0.74248044	-0.55549273	-0.55523632	-0.20814416	-0.79086405	-0.28967808	0.12840954	-0.31248357	0.74323969	-0.22260795	-0.60786355	0.53580657	0.24043590	-0.67097481	-0.28896063	-0.32558043	-0.82375764	-0.03623851	-0.20741615
5936	59.35000000	-0.94036836	-0.10827141	0.09279832	-0.55758816	0.09139959	-0.74715895	-0.55356948	-0.56096402	-0.21540885	-0.79165584	-0.29479079	0.12824757	-0.34087551	0.73716862	-0.21024173	-0.61533123	0.52635632	0.24130476	-0.67384681	-0.29003076	-0.32173659	-0.81166577	-0.05569161	-0.24311347
5937	59.36000000	-0.94359998	-0.10955923	0.10017543	-0.55609577	0.08144519	-0.74795019	-0.54926218	-0.56661721	-0.21295352	-0.79461297	-0.29589220	0.13007514	-0.36986194	0.72851373	-0.18552086	-0.61777115	0.51959381	0.24705069	-0.68006869	-0.29374353	-0.31847296	-0.79137394	-0.07512182	-0.27584536
5938	59.37000000	-0.93849844	-0.10629277	0.10126762	-0.55746809	0.07744839	-0.74665747	-0.54410073	-0.57397981	-0.21211437	-0.79028696	-0.30048020	0.13294829	-0.39556473	0.72366327	-0.16236963	-0.62027338	0.51443547	0.24720340	-0.68223292	-0.28876136	-0.31363586	-0.77261123	-0.10130340	-0.30533060
5939	59.38000000	-0.93878088	-0.09789857	0.09920340	-0.55504121	0.06822467	-0.74470401	-0.54167096	-0.57719172	-0.21325686	-0.78607302	-0.30346664	0.13148844	-0.42084894	0.71449850	-0.14055709	-0.62665987	0.50919001	0.25261713	-0.68294931	-0.29263576	-0.30375805	-0.76205161	-0.12876925	-0.33133087
5940	59.39000000	-0.94188909	-0.09523291	0.09851710	-0.55332248	0.05871545	-0.75057043	-0.53654149	-0.58292177	-0.21141541	-0.78340656	-0.30267094	0.13924365	-0.44455647	0.69629892	-0.11921130	-0.63477255	0.50732833	0.24652524	-0.68360292	-0.29263988	-0.30200796	-0.73875379	-0.14603549	-0.35402352
5941	59.40000000	-0.94096846	-0.08972293	0.09606608	-0.55163177	0.06684958	-0.75107555	-0.52861619	-0.58689291	-0.21437326	-0.78248678	-0.30772863	0.14917688	-0.47636176	0.68489409	-0.10293136	-0.64143781	0.49999870	0.24286260	-0.68172512	-0.29055181	-0.29337801	-0.72023352	-0.17551687	-0.37383918
5942	59.41000000	-0.93305883	-0.08788317	0.09801915	-0.55648060	0.05988480	-0.74348416	-0.52245463	-0.58695701	-0.21151024	-0.77815739	-0.31170012	0.15431397	-0.49431294	0.66887808	-0.08263349	-0.64487059	0.49463266	0.24120613	-0.68283304	-0.28801001	-0.28879234	-0.70231500	-0.20246108	-0.39272192
5943	59.42000000	-0.93593807	-0.08681419	0.09740346	-0.55777047	0.04927060	-0.75018720	-0.52101067	-0.59522270	-0.21317064	-0.78117458	-0.31026937	0.15179458	-0.51699439	0.65206923	-0.06772533	-0.64662456	0.49378986	0.23351749	-0.68544844	-0.28832835	-0.28721146	-0.68631239	-0.21633040	-0.40613544
5944	59.43000000	-0.94428849	-0.08508901	0.10009459	-0.56427892	0.05319348	-0.75200140	-0.51168435	-0.60701802	-0.21281973	-0.77870441	-0.31008117	0.15611621	-0.53894621	0.63087383	-0.05546067	-0.64759325	0.48955572	0.23309561	-0.68569809	-0.29253929	-0.28014562	-0.66820348	-0.23904696	-0.42311280
5945	59.44000000	-0.94229579	-0.08225898	0.10429829	-0.56260420	0.05371501	-0.74974764	-0.50263046	-0.61364324	-0.20610962	-0.77572184	-0.31450997	0.16186226	-0.56477277	0.60849357	-0.03945118	-0.64472706	0.48752445	0.23183802	-0.68327961	-0.29378460	-0.27400838	-0.65418935	-0.25195308	-0.43894956
5946	59.45000000	-0.93943390	-0.08162579	0.10114109	-0.56045922	0.04621797	-0.74862877	-0.49935085	-0.61592504	-0.20165643	-0.77068959	-0.31608010	0.16652019	-0.58749572	0.58720187	-0.02671078	-0.65341237	0.48634888	0.22704099	-0.68104098	-0.29244916	-0.27373246	-0.64468040	-0.26696485	-0.44970361
5947	59.46000000	-0.94124833	-0.07548327	0.10251721	-0.56184609	0.04458361	-0.74310651	-0.49053704	-0.62170122	-0.20245837	-0.77068573	-0.31674884	0.16688862	-0.60489634	0.56859266	-0.01781356	-0.65650340	0.48463430	0.22651530	-0.68089327	-0.29155401	-0.27024778	-0.62335298	-0.28226195	-0.46382575
